<svg xmlns="http://www.w3.org/2000/svg" viewBox="0 0 400 520">
  <defs>
    <linearGradient id="back" x1="0" y1="0" x2="1" y2="1">
      <stop offset="0%" stop-color="#18d38d"/>
      <stop offset="100%" stop-color="#0ea5e9"/>
    </linearGradient>
  </defs>
  <rect x="14" y="14" width="372" height="492" rx="34" fill="url(#back)"/>
  <rect x="28" y="28" width="344" height="464" rx="28" fill="none" stroke="#ffffff" stroke-opacity="0.24" stroke-width="2" stroke-dasharray="12 12"/>
  <circle cx="200" cy="244" r="114" fill="#ffffff" fill-opacity="0.14"/>
  <circle cx="200" cy="244" r="80" fill="#ffffff" fill-opacity="0.12"/>
  
  <path d="M170 180 H230 V214 C230 246,212 268,200 274 C188 268,170 246,170 214 Z" fill="#ffffff" fill-opacity="0.92"/>
  <path d="M170 188 H150 C150 220,162 236,178 236" fill="none" stroke="#ffffff" stroke-opacity="0.92" stroke-width="10"/>
  <path d="M230 188 H250 C250 220,238 236,222 236" fill="none" stroke="#ffffff" stroke-opacity="0.92" stroke-width="10"/>
  <rect x="192" y="274" width="16" height="26" rx="6" fill="#ffffff" fill-opacity="0.92"/>
  <rect x="168" y="300" width="64" height="16" rx="8" fill="#ffffff" fill-opacity="0.92"/>
        
  <text x="200" y="340" text-anchor="middle" font-family="Inter,Segoe UI,Arial,sans-serif" font-size="22" font-weight="900" fill="#ffffff" fill-opacity="0.92">MEMORY DUEL</text>
  <text x="200" y="368" text-anchor="middle" font-family="Inter,Segoe UI,Arial,sans-serif" font-size="18" font-weight="700" fill="#ffffff" fill-opacity="0.78">СПОРТ</text>
</svg>