<svg xmlns="http://www.w3.org/2000/svg" viewBox="0 0 400 520">
  <defs>
    <linearGradient id="bg" x1="0" y1="0" x2="1" y2="1">
      <stop offset="0%" stop-color="#f8fbff"/>
      <stop offset="100%" stop-color="#ecf5ff"/>
    </linearGradient>
    <linearGradient id="accent" x1="0" y1="0" x2="1" y2="1">
      <stop offset="0%" stop-color="#ff5ea9"/>
      <stop offset="100%" stop-color="#8b5cf6"/>
    </linearGradient>
    <filter id="shadow" x="-30%" y="-30%" width="160%" height="160%">
      <feDropShadow dx="0" dy="18" stdDeviation="18" flood-color="#09111f" flood-opacity="0.18"/>
    </filter>
  </defs>
  <rect x="14" y="14" width="372" height="492" rx="34" fill="url(#bg)"/>
  <rect x="24" y="24" width="352" height="54" rx="18" fill="url(#accent)"/>
  <text x="42" y="58" font-family="Inter,Segoe UI,Arial,sans-serif" font-size="19" font-weight="800" fill="white">МАРКИ</text>
  <rect x="32" y="94" width="336" height="264" rx="28" fill="white" stroke="#d9e8fb" stroke-width="2" filter="url(#shadow)"/>
  <rect x="58" y="124" width="284" height="180" rx="26" fill="#ffffff" stroke="#e2e8f0" stroke-width="2"/>
        <g transform="translate(200 214)">
          <path d="M-8 -52 C8 -74, 26 -74, 34 -62 C16 -44,-4 -36,-8 -52 Z" fill="#22c55e"/>
          <path d="M20 -14 C48 -14,64 10,62 38 C60 72,40 104,16 104 C2 104,-8 96,-22 96 C-36 96,-48 104,-62 104 C-84 104,-102 76,-102 42 C-102 6,-80 -24,-46 -24 C-30 -48,-10 -70,16 -70 C22 -70,38 -64,54 -50 C44 -32,32 -20,20 -14 Z" fill="#111827"/>
        </g>
        
  <rect x="32" y="378" width="336" height="102" rx="26" fill="#0f172a"/>
  <text x="48" y="428" font-family="Inter,Segoe UI,Arial,sans-serif" font-size="32" font-weight="800" fill="white">Apple</text>
  <text x="48" y="455" font-family="Inter,Segoe UI,Arial,sans-serif" font-size="15" font-weight="700" fill="#c8daee">MEMORY DUEL</text>
</svg>