<svg xmlns="http://www.w3.org/2000/svg" viewBox="0 0 400 520">
  <defs>
    <linearGradient id="bg" x1="0" y1="0" x2="1" y2="1">
      <stop offset="0%" stop-color="#f8fbff"/>
      <stop offset="100%" stop-color="#ecf5ff"/>
    </linearGradient>
    <linearGradient id="accent" x1="0" y1="0" x2="1" y2="1">
      <stop offset="0%" stop-color="#b8df56"/>
      <stop offset="100%" stop-color="#f59e0b"/>
    </linearGradient>
    <filter id="shadow" x="-30%" y="-30%" width="160%" height="160%">
      <feDropShadow dx="0" dy="18" stdDeviation="18" flood-color="#09111f" flood-opacity="0.18"/>
    </filter>
  </defs>
  <rect x="14" y="14" width="372" height="492" rx="34" fill="url(#bg)"/>
  <rect x="24" y="24" width="352" height="54" rx="18" fill="url(#accent)"/>
  <text x="42" y="58" font-family="Inter,Segoe UI,Arial,sans-serif" font-size="19" font-weight="800" fill="white">ВОЙНИЦИ</text>
  <rect x="32" y="94" width="336" height="264" rx="28" fill="white" stroke="#d9e8fb" stroke-width="2" filter="url(#shadow)"/>
  
    <rect x="56" y="122" width="288" height="184" rx="26" fill="#eef6e6"/>
    <path d="M82 146 C126 116,164 168,206 142 C246 116,280 166,322 144 V304 H82 Z" fill="#cad6a5"/>
    <path d="M66 208 C112 178,156 224,194 198 C248 160,292 240,336 202 V304 H66 Z" fill="#a8ba76" opacity="0.75"/>
    
        <rect x="184" y="184" width="32" height="32" rx="10" fill="#374151"/>
        <path d="M140 160 L184 184 M260 160 L216 184 M140 240 L184 216 M260 240 L216 216" stroke="#4b5563" stroke-width="10" stroke-linecap="round"/>
        <circle cx="136" cy="156" r="18" fill="none" stroke="#0f172a" stroke-width="8"/>
        <circle cx="264" cy="156" r="18" fill="none" stroke="#0f172a" stroke-width="8"/>
        <circle cx="136" cy="244" r="18" fill="none" stroke="#0f172a" stroke-width="8"/>
        <circle cx="264" cy="244" r="18" fill="none" stroke="#0f172a" stroke-width="8"/>
        
  <rect x="32" y="378" width="336" height="102" rx="26" fill="#0f172a"/>
  <text x="48" y="428" font-family="Inter,Segoe UI,Arial,sans-serif" font-size="32" font-weight="800" fill="white">Дрон</text>
  <text x="48" y="455" font-family="Inter,Segoe UI,Arial,sans-serif" font-size="15" font-weight="700" fill="#c8daee">MEMORY DUEL</text>
</svg>