<svg xmlns="http://www.w3.org/2000/svg" viewBox="0 0 400 520">
  <defs>
    <linearGradient id="bg" x1="0" y1="0" x2="1" y2="1">
      <stop offset="0%" stop-color="#f8fbff"/>
      <stop offset="100%" stop-color="#ecf5ff"/>
    </linearGradient>
    <linearGradient id="accent" x1="0" y1="0" x2="1" y2="1">
      <stop offset="0%" stop-color="#b8df56"/>
      <stop offset="100%" stop-color="#f59e0b"/>
    </linearGradient>
    <filter id="shadow" x="-30%" y="-30%" width="160%" height="160%">
      <feDropShadow dx="0" dy="18" stdDeviation="18" flood-color="#09111f" flood-opacity="0.18"/>
    </filter>
  </defs>
  <rect x="14" y="14" width="372" height="492" rx="34" fill="url(#bg)"/>
  <rect x="24" y="24" width="352" height="54" rx="18" fill="url(#accent)"/>
  <text x="42" y="58" font-family="Inter,Segoe UI,Arial,sans-serif" font-size="19" font-weight="800" fill="white">ВОЙНИЦИ</text>
  <rect x="32" y="94" width="336" height="264" rx="28" fill="white" stroke="#d9e8fb" stroke-width="2" filter="url(#shadow)"/>
  
    <rect x="56" y="122" width="288" height="184" rx="26" fill="#eef6e6"/>
    <path d="M82 146 C126 116,164 168,206 142 C246 116,280 166,322 144 V304 H82 Z" fill="#cad6a5"/>
    <path d="M66 208 C112 178,156 224,194 198 C248 160,292 240,336 202 V304 H66 Z" fill="#a8ba76" opacity="0.75"/>
    
        <path d="M170 138 L196 184 L222 138 H252 L220 198 H180 L148 138 Z" fill="#d97706"/>
        <circle cx="200" cy="230" r="44" fill="#facc15" stroke="#ca8a04" stroke-width="10"/>
        <circle cx="200" cy="230" r="20" fill="#fff7cc"/>
        <text x="200" y="238" text-anchor="middle" font-family="Inter,Arial,sans-serif" font-size="24" font-weight="900" fill="#a16207">★</text>
        
  <rect x="32" y="378" width="336" height="102" rx="26" fill="#0f172a"/>
  <text x="48" y="428" font-family="Inter,Segoe UI,Arial,sans-serif" font-size="32" font-weight="800" fill="white">Медал</text>
  <text x="48" y="455" font-family="Inter,Segoe UI,Arial,sans-serif" font-size="15" font-weight="700" fill="#c8daee">MEMORY DUEL</text>
</svg>