<svg xmlns="http://www.w3.org/2000/svg" viewBox="0 0 400 520">
  <defs>
    <linearGradient id="bg" x1="0" y1="0" x2="1" y2="1">
      <stop offset="0%" stop-color="#f8fbff"/>
      <stop offset="100%" stop-color="#ecf5ff"/>
    </linearGradient>
    <linearGradient id="accent" x1="0" y1="0" x2="1" y2="1">
      <stop offset="0%" stop-color="#b8df56"/>
      <stop offset="100%" stop-color="#f59e0b"/>
    </linearGradient>
    <filter id="shadow" x="-30%" y="-30%" width="160%" height="160%">
      <feDropShadow dx="0" dy="18" stdDeviation="18" flood-color="#09111f" flood-opacity="0.18"/>
    </filter>
  </defs>
  <rect x="14" y="14" width="372" height="492" rx="34" fill="url(#bg)"/>
  <rect x="24" y="24" width="352" height="54" rx="18" fill="url(#accent)"/>
  <text x="42" y="58" font-family="Inter,Segoe UI,Arial,sans-serif" font-size="19" font-weight="800" fill="white">ВОЙНИЦИ</text>
  <rect x="32" y="94" width="336" height="264" rx="28" fill="white" stroke="#d9e8fb" stroke-width="2" filter="url(#shadow)"/>
  
    <rect x="56" y="122" width="288" height="184" rx="26" fill="#eef6e6"/>
    <path d="M82 146 C126 116,164 168,206 142 C246 116,280 166,322 144 V304 H82 Z" fill="#cad6a5"/>
    <path d="M66 208 C112 178,156 224,194 198 C248 160,292 240,336 202 V304 H66 Z" fill="#a8ba76" opacity="0.75"/>
    
        <rect x="154" y="146" width="92" height="132" rx="18" fill="#334155"/>
        <rect x="170" y="168" width="60" height="40" rx="10" fill="#93c5fd"/>
        <circle cx="184" cy="232" r="10" fill="#fbbf24"/>
        <circle cx="216" cy="232" r="10" fill="#fbbf24"/>
        <rect x="194" y="118" width="12" height="36" rx="6" fill="#1e293b"/>
        <rect x="204" y="110" width="8" height="44" rx="4" fill="#475569"/>
        
  <rect x="32" y="378" width="336" height="102" rx="26" fill="#0f172a"/>
  <text x="48" y="428" font-family="Inter,Segoe UI,Arial,sans-serif" font-size="32" font-weight="800" fill="white">Радиостанция</text>
  <text x="48" y="455" font-family="Inter,Segoe UI,Arial,sans-serif" font-size="15" font-weight="700" fill="#c8daee">MEMORY DUEL</text>
</svg>