<svg id="emoji" viewBox="0 0 72 72" xmlns="http://www.w3.org/2000/svg">
  <g id="color">
    <path d="M28 26c10 0 18 8 18 18s-8 18-18 18-18-8-18-18 8-18 18-18Z" fill="#6b4ea5"/>
    <rect x="39" y="16" width="7" height="30" rx="3.5" fill="#c99653"/>
    <rect x="48" y="14" width="7" height="33" rx="3.5" fill="#c99653"/>
    <rect x="23" y="10" width="8" height="24" rx="4" fill="#c99653"/>
    <path d="M14 45c2-3 6-5 10-5 7 0 10 4 10 9s-4 9-10 9c-5 0-8-2-10-6" fill="#d8c6ff"/>
  </g>
  <g id="line">
    <path d="M28 26c10 0 18 8 18 18s-8 18-18 18-18-8-18-18 8-18 18-18Z" fill="none" stroke="#000" stroke-linecap="round" stroke-linejoin="round" stroke-width="2"/>
    <rect x="39" y="16" width="7" height="30" rx="3.5" fill="none" stroke="#000" stroke-width="2"/>
    <rect x="48" y="14" width="7" height="33" rx="3.5" fill="none" stroke="#000" stroke-width="2"/>
    <rect x="23" y="10" width="8" height="24" rx="4" fill="none" stroke="#000" stroke-width="2"/>
    <path d="M14 45c2-3 6-5 10-5 7 0 10 4 10 9s-4 9-10 9c-5 0-8-2-10-6" fill="none" stroke="#000" stroke-linecap="round" stroke-linejoin="round" stroke-width="2"/>
  </g>
</svg>
