<svg id="emoji" viewBox="0 0 72 72" xmlns="http://www.w3.org/2000/svg">
  <g id="color">
    <path d="M36 14c3 0 5 2 5 5v9c4 1 7 5 7 10 0 4-2 7-5 9 3 2 5 5 5 9 0 6-5 11-12 11s-12-5-12-11c0-4 2-7 5-9-3-2-5-5-5-9 0-5 3-9 7-10v-9c0-3 2-5 5-5Z" fill="#a35f2e"/>
    <rect x="34" y="8" width="4" height="7" rx="2" fill="#2f3136"/>
    <rect x="34.6" y="14" width="2.8" height="35" rx="1.4" fill="#472910"/>
    <path d="M31 30c2 2 2 10 0 12M41 30c-2 2-2 10 0 12" fill="none" stroke="#5d3416" stroke-width="2" stroke-linecap="round"/>
    <rect x="34.6" y="49" width="2.8" height="12" rx="1.4" fill="#2f3136"/>
  </g>
  <g id="line">
    <path d="M36 14c3 0 5 2 5 5v9c4 1 7 5 7 10 0 4-2 7-5 9 3 2 5 5 5 9 0 6-5 11-12 11s-12-5-12-11c0-4 2-7 5-9-3-2-5-5-5-9 0-5 3-9 7-10v-9c0-3 2-5 5-5Z" fill="none" stroke="#000" stroke-linecap="round" stroke-linejoin="round" stroke-width="2"/>
    <rect x="34" y="8" width="4" height="7" rx="2" fill="none" stroke="#000" stroke-width="2"/>
    <rect x="34.6" y="14" width="2.8" height="35" rx="1.4" fill="none" stroke="#000" stroke-width="1.5"/>
    <path d="M31 30c2 2 2 10 0 12M41 30c-2 2-2 10 0 12" fill="none" stroke="#000" stroke-width="2" stroke-linecap="round"/>
    <rect x="34.6" y="49" width="2.8" height="12" rx="1.4" fill="none" stroke="#000" stroke-width="1.6"/>
    <line x1="32" y1="16" x2="32" y2="48" stroke="#000" stroke-width="1"/>
    <line x1="40" y1="16" x2="40" y2="48" stroke="#000" stroke-width="1"/>
  </g>
</svg>
