<svg id="emoji" viewBox="0 0 72 72" xmlns="http://www.w3.org/2000/svg">
  <g id="color">
    <path d="M15 52 49 18c2-2 5-2 7 0l1 1c2 2 2 5 0 7L23 60Z" fill="#2f3136"/>
    <path d="M52 15 58 9l5 5-6 6z" fill="#d7b46a"/>
    <circle cx="24" cy="51" r="2.1" fill="#eceff4"/>
    <circle cx="29" cy="46" r="2.1" fill="#eceff4"/>
    <circle cx="34" cy="41" r="2.1" fill="#eceff4"/>
    <circle cx="39" cy="36" r="2.1" fill="#eceff4"/>
    <circle cx="44" cy="31" r="2.1" fill="#eceff4"/>
    <circle cx="49" cy="26" r="2.1" fill="#eceff4"/>
  </g>
  <g id="line">
    <path d="M15 52 49 18c2-2 5-2 7 0l1 1c2 2 2 5 0 7L23 60Z" fill="none" stroke="#000" stroke-linecap="round" stroke-linejoin="round" stroke-width="2"/>
    <path d="M52 15 58 9l5 5-6 6z" fill="none" stroke="#000" stroke-linecap="round" stroke-linejoin="round" stroke-width="2"/>
    <circle cx="24" cy="51" r="2.1" fill="none" stroke="#000" stroke-width="1.5"/>
    <circle cx="29" cy="46" r="2.1" fill="none" stroke="#000" stroke-width="1.5"/>
    <circle cx="34" cy="41" r="2.1" fill="none" stroke="#000" stroke-width="1.5"/>
    <circle cx="39" cy="36" r="2.1" fill="none" stroke="#000" stroke-width="1.5"/>
    <circle cx="44" cy="31" r="2.1" fill="none" stroke="#000" stroke-width="1.5"/>
    <circle cx="49" cy="26" r="2.1" fill="none" stroke="#000" stroke-width="1.5"/>
  </g>
</svg>
