<svg id="emoji" viewBox="0 0 72 72" xmlns="http://www.w3.org/2000/svg">
  <g id="color">
    <path d="M18 56h30l-8-40h-8l-14 40Z" fill="#d4a15b"/>
    <path d="M48 56c7-2 11-9 11-16 0-9-6-16-15-18" fill="none" stroke="#8a6233" stroke-width="6" stroke-linecap="round"/>
    <line x1="27" y1="20" x2="22" y2="54" stroke="#f8efe2" stroke-width="1.8"/>
    <line x1="32" y1="20" x2="28" y2="54" stroke="#f8efe2" stroke-width="1.8"/>
    <line x1="37" y1="20" x2="34" y2="54" stroke="#f8efe2" stroke-width="1.8"/>
    <line x1="42" y1="20" x2="40" y2="54" stroke="#f8efe2" stroke-width="1.8"/>
  </g>
  <g id="line">
    <path d="M18 56h30l-8-40h-8l-14 40Z" fill="none" stroke="#000" stroke-linejoin="round" stroke-width="2"/>
    <path d="M48 56c7-2 11-9 11-16 0-9-6-16-15-18" fill="none" stroke="#000" stroke-linecap="round" stroke-width="2"/>
    <line x1="27" y1="20" x2="22" y2="54" stroke="#000" stroke-width="1.2"/>
    <line x1="32" y1="20" x2="28" y2="54" stroke="#000" stroke-width="1.2"/>
    <line x1="37" y1="20" x2="34" y2="54" stroke="#000" stroke-width="1.2"/>
    <line x1="42" y1="20" x2="40" y2="54" stroke="#000" stroke-width="1.2"/>
  </g>
</svg>
