<svg id="emoji" viewBox="0 0 72 72" xmlns="http://www.w3.org/2000/svg">
  <g id="color">
    <path d="M20 10h24l8 8v44H20z" fill="#f6f7fb"/>
    <path d="M44 10v8h8" fill="#d7dbea"/>
    <line x1="24" y1="26" x2="48" y2="26" stroke="#7f8ba3" stroke-width="1.4"/>
    <line x1="24" y1="31" x2="48" y2="31" stroke="#7f8ba3" stroke-width="1.4"/>
    <line x1="24" y1="36" x2="48" y2="36" stroke="#7f8ba3" stroke-width="1.4"/>
    <line x1="24" y1="41" x2="48" y2="41" stroke="#7f8ba3" stroke-width="1.4"/>
    <ellipse cx="31" cy="38" rx="2.6" ry="2" fill="#2f3136"/>
    <rect x="33" y="29" width="1.8" height="9.2" fill="#2f3136"/>
    <ellipse cx="41" cy="34" rx="2.6" ry="2" fill="#2f3136"/>
    <rect x="43" y="25" width="1.8" height="9.2" fill="#2f3136"/>
  </g>
  <g id="line">
    <path d="M20 10h24l8 8v44H20z" fill="none" stroke="#000" stroke-linejoin="round" stroke-width="2"/>
    <path d="M44 10v8h8" fill="none" stroke="#000" stroke-linejoin="round" stroke-width="2"/>
    <line x1="24" y1="26" x2="48" y2="26" stroke="#000" stroke-width="1.2"/>
    <line x1="24" y1="31" x2="48" y2="31" stroke="#000" stroke-width="1.2"/>
    <line x1="24" y1="36" x2="48" y2="36" stroke="#000" stroke-width="1.2"/>
    <line x1="24" y1="41" x2="48" y2="41" stroke="#000" stroke-width="1.2"/>
    <ellipse cx="31" cy="38" rx="2.6" ry="2" fill="none" stroke="#000" stroke-width="1.3"/>
    <rect x="33" y="29" width="1.8" height="9.2" fill="none" stroke="#000" stroke-width="1.2"/>
    <ellipse cx="41" cy="34" rx="2.6" ry="2" fill="none" stroke="#000" stroke-width="1.3"/>
    <rect x="43" y="25" width="1.8" height="9.2" fill="none" stroke="#000" stroke-width="1.2"/>
  </g>
</svg>
