<svg id="emoji" viewBox="0 0 72 72" xmlns="http://www.w3.org/2000/svg">
  <g id="color">
    <circle cx="36" cy="36" r="19" fill="#f2c94c"/>
    <circle cx="36" cy="36" r="11" fill="#f8e8a0"/>
    <circle cx="36" cy="17" r="3.2" fill="#d9dde5"/>
    <circle cx="52.5" cy="24.5" r="3.2" fill="#d9dde5"/>
    <circle cx="55" cy="36" r="3.2" fill="#d9dde5"/>
    <circle cx="52.5" cy="47.5" r="3.2" fill="#d9dde5"/>
    <circle cx="36" cy="55" r="3.2" fill="#d9dde5"/>
    <circle cx="19.5" cy="47.5" r="3.2" fill="#d9dde5"/>
    <circle cx="17" cy="36" r="3.2" fill="#d9dde5"/>
    <circle cx="19.5" cy="24.5" r="3.2" fill="#d9dde5"/>
  </g>
  <g id="line">
    <circle cx="36" cy="36" r="19" fill="none" stroke="#000" stroke-width="2"/>
    <circle cx="36" cy="36" r="11" fill="none" stroke="#000" stroke-width="2"/>
    <circle cx="36" cy="17" r="3.2" fill="none" stroke="#000" stroke-width="1.6"/>
    <circle cx="52.5" cy="24.5" r="3.2" fill="none" stroke="#000" stroke-width="1.6"/>
    <circle cx="55" cy="36" r="3.2" fill="none" stroke="#000" stroke-width="1.6"/>
    <circle cx="52.5" cy="47.5" r="3.2" fill="none" stroke="#000" stroke-width="1.6"/>
    <circle cx="36" cy="55" r="3.2" fill="none" stroke="#000" stroke-width="1.6"/>
    <circle cx="19.5" cy="47.5" r="3.2" fill="none" stroke="#000" stroke-width="1.6"/>
    <circle cx="17" cy="36" r="3.2" fill="none" stroke="#000" stroke-width="1.6"/>
    <circle cx="19.5" cy="24.5" r="3.2" fill="none" stroke="#000" stroke-width="1.6"/>
  </g>
</svg>
