<svg id="emoji" viewBox="0 0 72 72" xmlns="http://www.w3.org/2000/svg">
  <g id="color">
    <rect x="14" y="24" width="44" height="24" rx="4" fill="#d84b3f"/>
    <rect x="14" y="24" width="6" height="24" fill="#f2d6b3"/>
    <rect x="52" y="24" width="6" height="24" fill="#f2d6b3"/>
    <line x1="25" y1="24" x2="25" y2="48" stroke="#f2d6b3" stroke-width="2"/>
    <line x1="36" y1="24" x2="36" y2="48" stroke="#f2d6b3" stroke-width="2"/>
    <line x1="47" y1="24" x2="47" y2="48" stroke="#f2d6b3" stroke-width="2"/>
    <line x1="22" y1="18" x2="34" y2="10" stroke="#8a6233" stroke-width="3" stroke-linecap="round"/>
    <line x1="50" y1="18" x2="38" y2="10" stroke="#8a6233" stroke-width="3" stroke-linecap="round"/>
  </g>
  <g id="line">
    <rect x="14" y="24" width="44" height="24" rx="4" fill="none" stroke="#000" stroke-width="2"/>
    <rect x="14" y="24" width="6" height="24" fill="none" stroke="#000" stroke-width="1.5"/>
    <rect x="52" y="24" width="6" height="24" fill="none" stroke="#000" stroke-width="1.5"/>
    <line x1="25" y1="24" x2="25" y2="48" stroke="#000" stroke-width="1.5"/>
    <line x1="36" y1="24" x2="36" y2="48" stroke="#000" stroke-width="1.5"/>
    <line x1="47" y1="24" x2="47" y2="48" stroke="#000" stroke-width="1.5"/>
    <line x1="22" y1="18" x2="34" y2="10" stroke="#000" stroke-width="2" stroke-linecap="round"/>
    <line x1="50" y1="18" x2="38" y2="10" stroke="#000" stroke-width="2" stroke-linecap="round"/>
  </g>
</svg>
