
    <svg viewBox="0 0 420 420" xmlns="http://www.w3.org/2000/svg" role="img" aria-label="Бразилия">
      <defs>
        <linearGradient id="asset-countries-brazil-countries-brazil-bg" x1="0" y1="0" x2="1" y2="1">
          <stop offset="0%" stop-color="#ff9d3f"/>
          <stop offset="100%" stop-color="#ff5b77"/>
        </linearGradient>
        <linearGradient id="asset-countries-brazil-countries-brazil-stage" x1="0" y1="0" x2="0" y2="1">
          <stop offset="0%" stop-color="rgba(255,255,255,0.16)"/>
          <stop offset="100%" stop-color="rgba(7,13,26,0.20)"/>
        </linearGradient>
        <radialGradient id="asset-countries-brazil-countries-brazil-art-glow" cx="50%" cy="38%" r="58%">
          <stop offset="0%" stop-color="rgba(255,255,255,0.24)"/>
          <stop offset="100%" stop-color="rgba(255,255,255,0)"/>
        </radialGradient>
        <filter id="asset-countries-brazil-countries-brazil-shadow" x="-20%" y="-20%" width="140%" height="140%">
          <feDropShadow dx="0" dy="16" stdDeviation="18" flood-color="rgba(0,0,0,0.28)"/>
        </filter>
      </defs>
      <rect x="8" y="8" width="404" height="404" rx="36" fill="rgba(255,255,255,0.10)"/>
      <rect x="16" y="16" width="388" height="388" rx="32" fill="url(#asset-countries-brazil-countries-brazil-bg)"/>
      <circle cx="320" cy="98" r="82" fill="rgba(255,255,255,0.14)"/>
      <circle cx="100" cy="332" r="100" fill="rgba(255,255,255,0.08)"/>
      <rect x="44" y="58" width="332" height="228" rx="30" fill="#ffffff" filter="url(#asset-countries-brazil-countries-brazil-shadow)"/>
      <g>
    <defs>
      <filter id="asset-countries-brazil-flag-drop" x="-25%" y="-25%" width="150%" height="150%">
        <feDropShadow dx="0" dy="14" stdDeviation="10" flood-color="#07111d" flood-opacity="0.24"/>
      </filter>
      <clipPath id="asset-countries-brazil-flag-clip">
        <rect x="54" y="74" width="312" height="204" rx="24"/>
      </clipPath>
      <linearGradient id="asset-countries-brazil-flag-sheen" x1="0" y1="0" x2="1" y2="1">
        <stop offset="0%" stop-color="rgba(255,255,255,0.28)"/>
        <stop offset="100%" stop-color="rgba(255,255,255,0)"/>
      </linearGradient>
    </defs>
    <g filter="url(#asset-countries-brazil-flag-drop)">
      
        <rect x="54" y="74" width="312" height="204" rx="24" fill="#18984a"/>
        <polygon points="210,100 324,176 210,252 96,176" fill="#ffd23f"/>
        <circle cx="210" cy="176" r="46" fill="#1d4ed8"/>
        <path d="M170 182c28-18 55-21 80-10" stroke="#ffffff" stroke-width="10" fill="none" stroke-linecap="round"/>
      
      <g clip-path="url(#asset-countries-brazil-flag-clip)">
        <path d="M38 98c56 22 118 26 184 10s116-18 168-4v38c-58-18-112-16-176 0s-122 12-176-8z" fill="url(#asset-countries-brazil-flag-sheen)" opacity="0.85"/>
        <path d="M42 164c54 18 110 18 168 4 64-16 122-16 180 6v42c-58-20-116-20-178-4-62 14-120 12-170-4z" fill="rgba(255,255,255,0.12)"/>
        <path d="M36 226c58 18 118 20 184 8s118-14 170-2v30c-56-18-112-18-176-6-66 12-124 10-178-8z" fill="rgba(0,0,0,0.08)"/>
      </g>
      <rect x="54" y="74" width="312" height="204" rx="24" fill="none" stroke="rgba(255,255,255,0.26)" stroke-width="3"/>
    </g>
  </g>
      <rect x="42" y="298" width="336" height="78" rx="24" fill="rgba(9,18,34,0.30)"/>
      <text x="210" y="346" text-anchor="middle" font-size="32" font-weight="800" fill="#ffffff" font-family="Inter, Arial, sans-serif">Бразилия</text>
      <rect x="16" y="16" width="388" height="388" rx="32" fill="none" stroke="rgba(255,255,255,0.18)" stroke-width="2"/>
    </svg>
  