<svg xmlns="http://www.w3.org/2000/svg" viewBox="0 0 400 520">
  <defs>
    <linearGradient id="bg" x1="0" y1="0" x2="1" y2="1">
      <stop offset="0%" stop-color="#f8fbff"/>
      <stop offset="100%" stop-color="#ecf5ff"/>
    </linearGradient>
    <linearGradient id="accent" x1="0" y1="0" x2="1" y2="1">
      <stop offset="0%" stop-color="#18d38d"/>
      <stop offset="100%" stop-color="#0ea5e9"/>
    </linearGradient>
    <filter id="shadow" x="-30%" y="-30%" width="160%" height="160%">
      <feDropShadow dx="0" dy="18" stdDeviation="18" flood-color="#09111f" flood-opacity="0.18"/>
    </filter>
  </defs>
  <rect x="14" y="14" width="372" height="492" rx="34" fill="url(#bg)"/>
  <rect x="24" y="24" width="352" height="54" rx="18" fill="url(#accent)"/>
  <text x="42" y="58" font-family="Inter,Segoe UI,Arial,sans-serif" font-size="19" font-weight="800" fill="white">СПОРТ</text>
  <rect x="32" y="94" width="336" height="264" rx="28" fill="white" stroke="#d9e8fb" stroke-width="2" filter="url(#shadow)"/>
  <rect x="56" y="122" width="288" height="184" rx="26" fill="#f2f8ff"/>
        <path d="M146 170 C146 146,168 130,194 134 C212 136,224 148,228 164 L236 194 C238 212,224 230,204 230 H176 C158 230,144 216,144 198 Z" fill="#dc2626"/>
        <path d="M254 170 C254 146,232 130,206 134 C188 136,176 148,172 164 L164 194 C162 212,176 230,196 230 H224 C242 230,256 216,256 198 Z" fill="#ef4444"/>
        <rect x="158" y="228" width="42" height="38" rx="14" fill="#991b1b"/>
        <rect x="200" y="228" width="42" height="38" rx="14" fill="#b91c1c"/>
        <path d="M170 164 C172 148,184 138,196 140" stroke="#fecaca" stroke-width="5" fill="none" stroke-linecap="round"/>
        <path d="M230 164 C228 148,216 138,204 140" stroke="#fecaca" stroke-width="5" fill="none" stroke-linecap="round"/>
        
  <rect x="32" y="378" width="336" height="102" rx="26" fill="#0f172a"/>
  <text x="48" y="428" font-family="Inter,Segoe UI,Arial,sans-serif" font-size="32" font-weight="800" fill="white">Бокс</text>
  <text x="48" y="455" font-family="Inter,Segoe UI,Arial,sans-serif" font-size="15" font-weight="700" fill="#c8daee">MEMORY DUEL</text>
</svg>