<svg xmlns="http://www.w3.org/2000/svg" viewBox="0 0 400 520">
  <defs>
    <linearGradient id="bg" x1="0" y1="0" x2="1" y2="1">
      <stop offset="0%" stop-color="#f8fbff"/>
      <stop offset="100%" stop-color="#ecf5ff"/>
    </linearGradient>
    <linearGradient id="accent" x1="0" y1="0" x2="1" y2="1">
      <stop offset="0%" stop-color="#18d38d"/>
      <stop offset="100%" stop-color="#0ea5e9"/>
    </linearGradient>
    <filter id="shadow" x="-30%" y="-30%" width="160%" height="160%">
      <feDropShadow dx="0" dy="18" stdDeviation="18" flood-color="#09111f" flood-opacity="0.18"/>
    </filter>
  </defs>
  <rect x="14" y="14" width="372" height="492" rx="34" fill="url(#bg)"/>
  <rect x="24" y="24" width="352" height="54" rx="18" fill="url(#accent)"/>
  <text x="42" y="58" font-family="Inter,Segoe UI,Arial,sans-serif" font-size="19" font-weight="800" fill="white">СПОРТ</text>
  <rect x="32" y="94" width="336" height="264" rx="28" fill="white" stroke="#d9e8fb" stroke-width="2" filter="url(#shadow)"/>
  <rect x="56" y="122" width="288" height="184" rx="26" fill="#f2f8ff"/>
        <circle cx="134" cy="240" r="44" fill="none" stroke="#1e293b" stroke-width="8"/>
        <circle cx="266" cy="240" r="44" fill="none" stroke="#1e293b" stroke-width="8"/>
        <path d="M134 240 L180 180 L212 240 Z" fill="none" stroke="#0ea5e9" stroke-width="8" stroke-linejoin="round"/>
        <path d="M180 180 H234 L266 240" fill="none" stroke="#0ea5e9" stroke-width="8" stroke-linecap="round"/>
        <path d="M194 160 L214 160" stroke="#1e293b" stroke-width="8" stroke-linecap="round"/>
        <path d="M170 170 L154 152" stroke="#1e293b" stroke-width="8" stroke-linecap="round"/>
        <circle cx="180" cy="180" r="10" fill="#0ea5e9"/>
        
  <rect x="32" y="378" width="336" height="102" rx="26" fill="#0f172a"/>
  <text x="48" y="428" font-family="Inter,Segoe UI,Arial,sans-serif" font-size="32" font-weight="800" fill="white">Колоездене</text>
  <text x="48" y="455" font-family="Inter,Segoe UI,Arial,sans-serif" font-size="15" font-weight="700" fill="#c8daee">MEMORY DUEL</text>
</svg>